# xmcd
#
# Track frame offsets:
#	150
#	1251
#	19598
#	40341
#	50945
#	57453
#	75077
#	94047
#	95416
#	107944
#	126932
#	139326
#	158726
#	185149
#	200567
#
# Disc length: 2785 seconds
#
# Revision: 0
# Processed by: cddbd v1.5.2PL0 Copyright (c) Steve Scherf et al.
# Submitted via: EZCDAudioConverter 2.1.7.1
#
DISCID=cc0adf0f
DTITLE=V/A - Ghost Box: In A Moment 1/2
DYEAR=1900
DGENRE=
TTITLE0=Focus Group - Dancing Horse (Logotone)
TTITLE1=Advisory Circle - Escape Lane
TTITLE2=Belbury Poly - Farmer's Angle
TTITLE3=Focus Group - Hey Let Loose Your Love
TTITLE4=Roj - Attaining The Third State
TTITLE5=John Foxx and The Belbury Circle - Almost There
TTITLE6=Pye Corner Audio - Deep End
TTITLE7=Advisory Circle - Callsign 'A': The TV Trap
TTITLE8=Advisory Circle - Nuclear Substation
TTITLE9=Belbury Poly - Owls And Flowers
TTITLE10=Focus Group - Frumious Numinous
TTITLE11=The Soundcarriers - Boiling Point
TTITLE12=Advisory Circle - Mind How You Go Now
TTITLE13=Belbury Poly - Cantalus
TTITLE14=Focus Group - You Do Not See Me
EXTD=
EXTT0=
EXTT1=
EXTT2=
EXTT3=
EXTT4=
EXTT5=
EXTT6=
EXTT7=
EXTT8=
EXTT9=
EXTT10=
EXTT11=
EXTT12=
EXTT13=
EXTT14=
PLAYORDER=
